# xmcd
#
# Track frame offsets:
#	150
#	13530
#	26049
#	37403
#	49024
#	62785
#	76897
#	90812
#	104048
#	114468
#	125294
#	138766
#	150059
#	161225
#	171340
#	185284
#	196963
#	208769
#	223038
#	235201
#	246525
#	255930
#	267147
#	278443
#	289785
#	301804
#	317395
#	329062
#
# Disc length: 4532 seconds
#
# Revision: 0
# Processed by: cddbd v1.5.2PL0 Copyright (c) Steve Scherf et al.
# Submitted via: audiograbber 1.83.01
#
DISCID=8511b21c
DTITLE=Lefty Frizzell - With You Always
DYEAR=2019
DGENRE=Country
TTITLE0=If You've Got The Money (I've Got The Time)
TTITLE1=I Love You A Thousand Ways
TTITLE2=Look What Thoughts Will Do 
TTITLE3=Shine Shave Shower (It's Saturday)
TTITLE4=I Want To Be With You Always
TTITLE5=Always Late (With Your Kisses)
TTITLE6=Mom And Dad's Waltz
TTITLE7=Travellin' Blues
TTITLE8=Give Me More, More, More (Of Your Kisses)
TTITLE9=How Long Will It Take (To Stop Loving You)
TTITLE10=Don't Stay Away (Till Love Grows Cold)
TTITLE11=Forever (And Always)
TTITLE12=I'm An Old, Old Man (Trying To Live While I Can)
TTITLE13=(Honey Baby, Hurry!) Bring Your Sweet Self Back To Me 
TTITLE14=Run 'Em Off
TTITLE15=I Love You Mostly
TTITLE16=Cigarettes And Coffee Blues
TTITLE17=The Long Black Veil
TTITLE18=My Baby's Just Like Money
TTITLE19=If You Can Spare The Time (I Won't Miss The Money)
TTITLE20=Just Can't Live That Fast (Anymore)
TTITLE21=No One To Talk To (But The Blues) w Shirley Caddell
TTITLE22=Time Out For The Blues
TTITLE23=You're Humbuggin' Me
TTITLE24=What You Gonna Do Leroy
TTITLE25=That's All I Can Remember
TTITLE26=Heaven's Plan
TTITLE27=Stranger
EXTD=
EXTT0=
EXTT1=
EXTT2=
EXTT3=
EXTT4=
EXTT5=
EXTT6=
EXTT7=
EXTT8=
EXTT9=
EXTT10=
EXTT11=
EXTT12=
EXTT13=
EXTT14=
EXTT15=
EXTT16=
EXTT17=
EXTT18=
EXTT19=
EXTT20=
EXTT21=
EXTT22=
EXTT23=
EXTT24=
EXTT25=
EXTT26=
EXTT27=
PLAYORDER=
